<svg viewBox="0 0 154.109 70.664" xmlns="http://www.w3.org/2000/svg" xml:space="preserve">
    <path d="M.028 21.511c0-3.991 2.636-6.651 6.602-6.651s6.602 2.66 6.602 6.651-2.636 6.652-6.602 6.652S.028 25.502.028 21.511zm9.664 0c0-2.259-1.229-3.715-3.062-3.715-1.832 0-3.062 1.456-3.062 3.715 0 2.234 1.23 3.715 3.062 3.715 1.832 0 3.062-1.48 3.062-3.715zM28.563 21.511c0 3.991-2.409 6.652-5.748 6.652-1.883 0-3.338-.829-4.267-2.26v6.903h-3.389v-17.57h3.389v1.883c.929-1.431 2.384-2.259 4.241-2.259 3.365 0 5.774 2.66 5.774 6.651zm-3.514 0c0-2.233-1.33-3.715-3.264-3.715-1.957 0-3.237 1.481-3.237 3.715s1.28 3.74 3.237 3.74c1.934 0 3.264-1.505 3.264-3.74zM42.842 23.72c-.753 2.711-3.088 4.443-6.351 4.443-4.041 0-6.627-2.661-6.627-6.652s2.636-6.651 6.627-6.651c4.568 0 7.104 3.414 5.773 7.479h-8.811c.251 1.808 1.28 2.887 3.087 2.887 1.255 0 2.184-.526 2.586-1.506h3.716zm-9.338-3.513h5.473c.15-1.507-.729-2.511-2.511-2.511-1.606 0-2.636.879-2.962 2.511zM56.267 20.633v7.153h-3.414v-7.129c0-1.18 0-2.962-1.958-2.962-1.631 0-2.811 1.582-2.811 3.916v6.175h-3.389v-12.55h3.389v2.234c.728-1.632 2.209-2.61 4.116-2.61 4.067 0 4.067 4.041 4.067 5.773zM.003 45.444h3.288c-.075 1.256.903 2.033 2.56 2.033 1.331 0 2.26-.502 2.26-1.255 0-2.134-7.957-.451-7.957-5.221 0-2.586 2.359-4.142 5.547-4.142 3.439 0 5.999 1.782 5.497 4.744H7.884c.302-1.23-.652-2.059-2.184-2.059-1.28 0-2.033.577-2.033 1.28 0 2.209 7.957.401 7.957 5.196 0 2.61-2.385 4.142-5.773 4.142-3.64.002-5.948-1.806-5.848-4.718zM12.876 43.511c0-3.991 2.636-6.651 6.602-6.651s6.602 2.66 6.602 6.651-2.636 6.652-6.602 6.652-6.602-2.661-6.602-6.652zm9.664 0c0-2.259-1.229-3.715-3.062-3.715-1.832 0-3.062 1.456-3.062 3.715 0 2.234 1.23 3.715 3.062 3.715 1.833 0 3.062-1.48 3.062-3.715zM35.815 37.236h3.413v12.551h-3.413v-2.059c-.854 1.507-2.284 2.359-4.017 2.359-3.514 0-4.041-3.589-4.041-5.798v-7.054h3.413v7.054c0 1.557.377 2.962 1.934 2.962 1.656 0 2.711-1.506 2.711-3.689v-6.326zM52 40.75c0 1.004-.251 2.033-.678 2.887h-3.539c.477-.804.728-1.531.728-2.209 0-.979-.526-1.606-1.355-1.606-1.229 0-2.133 1.48-2.133 3.79v6.175h-3.389V37.236h3.389v2.134c.652-1.581 1.882-2.51 3.514-2.51 2.108 0 3.463 1.555 3.463 3.89zM52.926 43.511c0-4.016 2.61-6.651 6.677-6.651s6.828 2.66 5.724 6.651h-3.364c.478-2.359-.477-3.715-2.359-3.715-1.933 0-3.138 1.431-3.138 3.69 0 2.284 1.256 3.739 3.113 3.739 1.279 0 2.184-.728 2.66-1.882h3.715c-.678 2.761-2.911 4.819-6.426 4.819-3.966.002-6.602-2.66-6.602-6.651zM80.156 45.72c-.753 2.711-3.088 4.443-6.351 4.443-4.041 0-6.627-2.661-6.627-6.652s2.636-6.651 6.627-6.651c4.568 0 7.104 3.414 5.773 7.479h-8.811c.251 1.808 1.28 2.887 3.087 2.887 1.255 0 2.184-.526 2.586-1.506h3.716zm-9.337-3.513h5.473c.15-1.507-.729-2.511-2.511-2.511-1.607 0-2.636.879-2.962 2.511zM0 68.379c0-1.256.929-2.209 2.209-2.209 1.23 0 2.159.953 2.159 2.209 0 1.255-.929 2.184-2.159 2.184-1.28 0-2.209-.929-2.209-2.184zM5.975 64.011c0-4.016 2.61-6.651 6.677-6.651s6.828 2.66 5.724 6.651h-3.364c.478-2.359-.477-3.715-2.359-3.715-1.933 0-3.138 1.431-3.138 3.69 0 2.284 1.256 3.739 3.113 3.739 1.279 0 2.184-.728 2.66-1.882h3.715c-.678 2.761-2.911 4.819-6.426 4.819-3.966.002-6.602-2.66-6.602-6.651zM20.229 64.011c0-3.991 2.636-6.651 6.602-6.651s6.602 2.66 6.602 6.651-2.636 6.652-6.602 6.652-6.602-2.661-6.602-6.652zm9.664 0c0-2.259-1.229-3.715-3.062-3.715-1.832 0-3.062 1.456-3.062 3.715 0 2.234 1.23 3.715 3.062 3.715 1.832 0 3.062-1.48 3.062-3.715zM46.857 63.133v7.153h-3.414v-7.129c0-1.18 0-2.962-1.958-2.962-1.631 0-2.811 1.582-2.811 3.916v6.175h-3.389v-12.55h3.389v2.234c.728-1.632 2.209-2.61 4.116-2.61 4.067 0 4.067 4.041 4.067 5.773zM48.51 65.944h3.288c-.075 1.256.903 2.033 2.56 2.033 1.331 0 2.26-.502 2.26-1.255 0-2.134-7.957-.451-7.957-5.221 0-2.586 2.359-4.142 5.547-4.142 3.439 0 5.999 1.782 5.497 4.744h-3.313c.302-1.23-.652-2.059-2.184-2.059-1.28 0-2.033.577-2.033 1.28 0 2.209 7.957.401 7.957 5.196 0 2.61-2.385 4.142-5.773 4.142-3.641.002-5.95-1.806-5.849-4.718zM70.394 60.648h-3.59v5.472c0 .904.251 1.606 1.531 1.606.703 0 1.18-.2 1.808-.552v2.962c-.603.326-1.431.527-2.46.527-3.991 0-4.292-2.912-4.292-4.519v-5.497h-2.485v-2.912h2.485v-3.413h3.413v3.413h3.59v2.913zM82.414 61.25c0 1.004-.251 2.033-.678 2.887h-3.539c.477-.804.728-1.531.728-2.209 0-.979-.526-1.606-1.355-1.606-1.229 0-2.133 1.48-2.133 3.79v6.175h-3.389V57.736h3.389v2.134c.652-1.581 1.882-2.51 3.514-2.51 2.108 0 3.463 1.555 3.463 3.89zM91.9 57.736h3.413v12.551H91.9v-2.059c-.854 1.507-2.284 2.359-4.017 2.359-3.514 0-4.041-3.589-4.041-5.798v-7.054h3.413v7.054c0 1.557.377 2.962 1.934 2.962 1.656 0 2.711-1.506 2.711-3.689v-6.326zM97.166 64.011c0-4.016 2.61-6.651 6.677-6.651s6.828 2.66 5.724 6.651h-3.364c.478-2.359-.477-3.715-2.359-3.715-1.933 0-3.138 1.431-3.138 3.69 0 2.284 1.256 3.739 3.113 3.739 1.279 0 2.184-.728 2.66-1.882h3.715c-.678 2.761-2.911 4.819-6.426 4.819-3.966.002-6.602-2.66-6.602-6.651zM120.331 60.648h-3.59v5.472c0 .904.251 1.606 1.531 1.606.703 0 1.18-.2 1.808-.552v2.962c-.603.326-1.431.527-2.46.527-3.991 0-4.292-2.912-4.292-4.519v-5.497h-2.485v-2.912h2.485v-3.413h3.413v3.413h3.59v2.913zM121.784 54.096c0-1.154.879-2.032 2.033-2.032s2.033.878 2.033 2.032c0 1.155-.879 2.033-2.033 2.033s-2.033-.878-2.033-2.033zm.302 16.191V57.736h3.413v12.551h-3.413zM127.481 64.011c0-3.991 2.636-6.651 6.602-6.651s6.602 2.66 6.602 6.651-2.636 6.652-6.602 6.652-6.602-2.661-6.602-6.652zm9.664 0c0-2.259-1.229-3.715-3.062-3.715-1.832 0-3.062 1.456-3.062 3.715 0 2.234 1.23 3.715 3.062 3.715 1.832 0 3.062-1.48 3.062-3.715zM154.109 63.133v7.153h-3.414v-7.129c0-1.18 0-2.962-1.958-2.962-1.631 0-2.811 1.582-2.811 3.916v6.175h-3.389v-12.55h3.389v2.234c.728-1.632 2.209-2.61 4.116-2.61 4.067 0 4.067 4.041 4.067 5.773z"/>
    <path fill="#fbe536" d="M0 0h154.109v3.995H0z"/>
</svg>